<?xml version="1.0" encoding="UTF-8"?>
<svg version="1.1" xmlns="http://www.w3.org/2000/svg" width="1090" height="268">
<path d="M0 0 C9.57 0 19.14 0 29 0 C37.37591241 8.79470803 37.37591241 8.79470803 39.3125 12.8671875 C41.91590423 17.97964181 45.06142124 22.42164201 48.5 27 C49.57468409 28.4821542 50.64629221 29.9665435 51.71484375 31.453125 C53.99570179 34.61155331 56.28009156 37.76739461 58.56640625 40.921875 C59.44425781 42.13423828 59.44425781 42.13423828 60.33984375 43.37109375 C61.45481628 44.91081772 62.57064563 46.44992175 63.6875 47.98828125 C66.54675182 51.93885056 69.32596636 55.92161775 72 60 C75.35927769 58.88024077 75.80914756 58.26397398 77.79296875 55.484375 C78.33244141 54.73865234 78.87191406 53.99292969 79.42773438 53.22460938 C80.29881836 51.99967773 80.29881836 51.99967773 81.1875 50.75 C82.45018186 49.00402035 83.71456805 47.25927228 84.98046875 45.515625 C85.63966309 44.60619141 86.29885742 43.69675781 86.97802734 42.75976562 C90.90810158 37.39565561 94.9426143 32.10686625 99.06225586 26.88696289 C102.45526875 22.54868129 105.49019927 18.28309854 108.140625 13.44921875 C114.11440535 3.05325248 114.11440535 3.05325248 119 0 C128.38634776 -2.26907617 137.42360978 -0.86643531 147 0 C147 16.5 147 33 147 50 C143.37 50.66 139.74 51.32 136 52 C130.49866339 54.85254491 125.99305438 59.02083687 124 65 C123.32294291 72.07041046 122.97593017 78.48484847 127.39453125 84.3515625 C133.19927237 90.31166165 138.59528584 91.31905717 147 93 C147 111.48 147 129.96 147 149 C137.43 149 127.86 149 118 149 C117.67 115.67 117.34 82.34 117 48 C103.95522108 65.11866069 103.95522108 65.11866069 91.26171875 82.46875 C85.59106774 90.37297532 79.78500425 98.17931311 74 106 C70.65177067 104.88392356 70.23019801 104.30829985 68.28515625 101.52734375 C67.77025635 100.8010376 67.25535645 100.07473145 66.72485352 99.32641602 C66.17627686 98.53807373 65.6277002 97.74973145 65.0625 96.9375 C63.8866842 95.27774715 62.70957545 93.61890959 61.53125 91.9609375 C60.93828125 91.12401367 60.3453125 90.28708984 59.734375 89.42480469 C57.23313871 85.92786228 54.65542538 82.49172587 52.0625 79.0625 C47.46378871 72.96395619 42.90692843 66.83585312 38.375 60.6875 C37.46826538 59.45882202 37.46826538 59.45882202 36.54321289 58.20532227 C35.97981201 57.44018311 35.41641113 56.67504395 34.8359375 55.88671875 C34.33626465 55.20826904 33.8365918 54.52981934 33.32177734 53.83081055 C32.17786747 52.24636648 31.08400863 50.62601294 30 49 C29.67 82 29.34 115 29 149 C19.43 149 9.86 149 0 149 C0 99.83 0 50.66 0 0 Z " fill="#239AD6" transform="translate(320,79)"/>
<path d="M0 0 C2.43314212 1.89858817 4.73628171 3.86974324 7.015625 5.94921875 C7.6240625 6.46613281 8.2325 6.98304687 8.859375 7.515625 C22.98597897 20.32588633 29.91425746 39.55656445 30.97265625 58.1484375 C31.21990942 80.01910465 22.96228537 98.60229962 7.828125 114.2265625 C-7.46041913 129.02672258 -27.56798924 135.67682114 -48.53271484 135.41772461 C-69.35124264 134.64823068 -87.19142331 126.49799517 -101.984375 111.94921875 C-104.91305122 108.76965099 -107.51476563 105.49503404 -109.984375 101.94921875 C-110.79648438 100.80066406 -110.79648438 100.80066406 -111.625 99.62890625 C-122.01082833 83.73544168 -124.6382044 63.10149517 -121.3359375 44.59375 C-116.44826166 24.77150907 -104.50135164 7.50779187 -87.05322266 -3.26855469 C-59.59807479 -19.40427406 -26.18194625 -17.99152066 0 0 Z M-83.35546875 29.7421875 C-91.29156441 40.49493102 -95.11835661 52.62943477 -93.984375 65.94921875 C-92.17569761 77.68282333 -86.75949083 87.88653806 -77.984375 95.94921875 C-65.4651006 105.0694996 -51.55976801 108.70188485 -36.234375 106.38671875 C-23.61246115 103.5443035 -11.75988417 96.13117201 -4.671875 85.26171875 C2.13171352 72.84848621 4.17810691 59.93811308 0.453125 46.19921875 C-3.87682122 33.73926862 -12.42962983 24.63157328 -24.046875 18.57421875 C-44.1991025 9.26930066 -67.87791224 13.22036211 -83.35546875 29.7421875 Z " fill="#239AD6" transform="translate(277.984375,93.05078125)"/>
<path d="M0 0 C7.43444038 -0.06926497 14.86773889 -0.12888174 22.30224609 -0.16479492 C24.82572242 -0.179783 27.34917313 -0.20018036 29.87255859 -0.22631836 C57.46365497 -0.50474058 80.51120794 2.92722402 101 23 C101.62777344 23.59167969 102.25554687 24.18335937 102.90234375 24.79296875 C115.99399917 38.24085969 120.23540825 57.75417248 120.18115234 75.86938477 C119.87831069 95.37555148 112.84927237 112.38098083 99.49609375 126.58984375 C82.55593411 142.9467741 62.19820813 149.20929132 39.0625 149.09765625 C38.06798828 149.09664917 37.07347656 149.09564209 36.04882812 149.09460449 C32.36587353 149.08940813 28.6829355 149.0754471 25 149.0625 C16.75 149.041875 8.5 149.02125 0 149 C0 130.19 0 111.38 0 92 C3.3 90.35 6.6 88.7 10 87 C14.34314548 82.87957993 16.8570724 77.50722348 17.1015625 71.5078125 C16.75067204 66.01052867 15.73859315 61.18594618 12 57 C8.1652134 53.96839252 4.75498455 52.18874614 0 51 C0 34.17 0 17.34 0 0 Z M29 27 C28.67 58.35 28.34 89.7 28 122 C48.99585195 122 63.56500749 121.88113708 78.7421875 107.44140625 C87.83865573 97.60525981 91.60571973 85.13345746 91.40673828 71.89013672 C90.86368682 58.6030493 86.6472498 47.22613969 77 38 C62.90543628 26.23646028 46.81150366 27 29 27 Z " fill="#F2B430" transform="translate(643,79)"/>
<path d="M0 0 C1.33417969 0.00483398 1.33417969 0.00483398 2.6953125 0.00976562 C4.07589844 0.02233398 4.07589844 0.02233398 5.484375 0.03515625 C6.88816406 0.04192383 6.88816406 0.04192383 8.3203125 0.04882812 C10.62506541 0.06058707 12.92968727 0.07702199 15.234375 0.09765625 C13.95422822 3.39039742 12.56226185 6.57009288 10.984375 9.73046875 C10.54633545 10.60856201 10.1082959 11.48665527 9.65698242 12.39135742 C9.18752197 13.32568604 8.71806152 14.26001465 8.234375 15.22265625 C7.74235596 16.20403564 7.25033691 17.18541504 6.7434082 18.1965332 C3.30652434 25.02671227 -0.20788809 31.81165704 -3.78759766 38.56787109 C-7.4460294 45.47349897 -11.04792688 52.40762691 -14.640625 59.34765625 C-19.00257164 67.77119179 -23.37328566 76.18992656 -27.765625 84.59765625 C-32.11441142 92.92301602 -36.44470646 101.25779982 -40.765625 109.59765625 C-46.09076924 119.8749661 -51.43245286 130.14344096 -56.79296875 140.40234375 C-58.9163403 144.46685985 -61.03221165 148.53519832 -63.14453125 152.60546875 C-63.69802246 153.67055664 -64.25151367 154.73564453 -64.82177734 155.83300781 C-65.8899974 157.88887581 -66.95678466 159.94548908 -68.02197266 162.00292969 C-68.49812012 162.91848633 -68.97426758 163.83404297 -69.46484375 164.77734375 C-69.88596436 165.58929199 -70.30708496 166.40124023 -70.7409668 167.23779297 C-71.765625 169.09765625 -71.765625 169.09765625 -72.765625 170.09765625 C-74.91121327 170.1854123 -77.05966921 170.20460844 -79.20703125 170.1953125 C-80.51220703 170.19208984 -81.81738281 170.18886719 -83.16210938 170.18554688 C-84.5507819 170.17719026 -85.93945377 170.1687253 -87.328125 170.16015625 C-88.72070156 170.15514291 -90.11327981 170.15057972 -91.50585938 170.14648438 C-94.9258237 170.13465059 -98.34570344 170.11816505 -101.765625 170.09765625 C-108.89355862 149.26531692 -116.01987202 128.43324676 -122.953125 107.53515625 C-126.6018935 96.53756928 -130.30223695 85.55979968 -134.07330322 74.60351562 C-136.31016359 68.10365194 -138.53908061 61.6010599 -140.765625 55.09765625 C-141.02915771 54.32828735 -141.29269043 53.55891846 -141.56420898 52.76623535 C-143.1618183 48.0984231 -144.75056726 43.42774224 -146.32785034 38.75302124 C-146.82495403 37.28354756 -147.32469861 35.81496441 -147.82717896 34.34732056 C-148.51815899 32.32760651 -149.19971841 30.30495451 -149.87890625 28.28125 C-150.26860596 27.13197021 -150.65830566 25.98269043 -151.05981445 24.79858398 C-151.765625 22.09765625 -151.765625 22.09765625 -150.765625 20.09765625 C-141.195625 20.42765625 -131.625625 20.75765625 -121.765625 21.09765625 C-119.27434084 27.32586664 -116.88490517 33.45067027 -114.78881836 39.80102539 C-114.38552055 41.01048073 -114.38552055 41.01048073 -113.97407532 42.24436951 C-113.09835389 44.87291115 -112.22687708 47.50283819 -111.35546875 50.1328125 C-110.74086983 51.98034811 -110.12600205 53.8277943 -109.51087952 55.67515564 C-107.89995389 60.51552579 -106.2926324 65.35708509 -104.68609619 70.19891357 C-103.05527028 75.11184625 -101.42105643 80.02365154 -99.78710938 84.93554688 C-97.14623581 92.8756735 -94.50734007 100.81645384 -91.87136841 108.75820923 C-90.17352452 113.87271773 -88.47078949 118.98558387 -86.765625 124.09765625 C-82.51004619 117.15245335 -78.54200459 110.09272972 -74.703125 102.91015625 C-70.36018451 94.83311037 -65.93527421 86.81285874 -61.390625 78.84765625 C-56.876434 70.9263993 -52.50363622 62.93828868 -48.22024536 54.89022827 C-45.41356114 49.61987808 -42.58907857 44.35903459 -39.765625 39.09765625 C-39.18216309 38.00694824 -38.59870117 36.91624023 -37.99755859 35.79248047 C-21.37854702 4.88951572 -21.37854702 4.88951572 -6.83691406 0.51782227 C-4.50621147 0.04503358 -2.37771064 -0.01524173 0 0 Z " fill="#F3B530" transform="translate(1023.765625,57.90234375)"/>
<path d="M0 0 C29.37 0 58.74 0 89 0 C89 8.91 89 17.82 89 27 C68.87 27 48.74 27 28 27 C28 37.89 28 48.78 28 60 C48.13 60 68.26 60 89 60 C89 69.24 89 78.48 89 88 C68.87 88 48.74 88 28 88 C28 98.89 28 109.78 28 121 C48.13 121 68.26 121 89 121 C89 130.24 89 139.48 89 149 C59.63 149 30.26 149 0 149 C0 99.83 0 50.66 0 0 Z " fill="#F3B430" transform="translate(775,79)"/>
<path d="M0 0 C35.64 0 71.28 0 108 0 C108 8.91 108 17.82 108 27 C94.8 27 81.6 27 68 27 C68 67.26 68 107.52 68 149 C58.76 149 49.52 149 40 149 C40 108.74 40 68.48 40 27 C26.8 27 13.6 27 0 27 C0 18.09 0 9.18 0 0 Z " fill="#239AD6" transform="translate(51,79)"/>
<path d="M0 0 C5.25176588 3.26776543 6.12955977 8.13158648 7.84765625 13.734375 C13.28016232 29.12954473 23.99347921 38.23714624 38.3125 45.25 C54.21147875 51.82497873 71.70061867 51.86438554 87.64453125 45.55859375 C103.25103693 38.27104884 113.17294613 26.99642241 120.07275391 11.49584961 C122.02911317 7.27103303 123.52307511 4.90251626 128 3 C132.33570093 2.44818352 134.40948142 2.67067233 138.25 4.8125 C143.91176471 9.31617647 143.91176471 9.31617647 144.5 13.875 C143.89584931 30.05573139 132.11878644 44.23639702 121 55 C99.80503465 72.96816774 74.48493461 75.34336104 48 74 C42.7351367 73.38870607 37.92320499 71.95517907 33 70 C31.96875 69.63777344 30.9375 69.27554688 29.875 68.90234375 C9.11979627 61.09266888 -4.92412811 45.79966698 -14.5546875 26.359375 C-16.84040486 21.04662653 -18.7432632 15.82222837 -18 10 C-13.80528997 2.23201845 -8.92041023 -1.77108327 0 0 Z " fill="#F3B430" transform="translate(492,163)"/>
<path d="M0 0 C0.88945313 0.00322266 1.77890625 0.00644531 2.6953125 0.00976562 C3.61570312 0.01814453 4.53609375 0.02652344 5.484375 0.03515625 C6.88816406 0.04192383 6.88816406 0.04192383 8.3203125 0.04882812 C10.62506541 0.06058707 12.92968727 0.07702199 15.234375 0.09765625 C13.95422822 3.39039742 12.56226185 6.57009288 10.984375 9.73046875 C10.54633545 10.60856201 10.1082959 11.48665527 9.65698242 12.39135742 C9.18752197 13.32568604 8.71806152 14.26001465 8.234375 15.22265625 C7.49634644 16.69472534 7.49634644 16.69472534 6.7434082 18.1965332 C3.30652434 25.02671227 -0.20788809 31.81165704 -3.78759766 38.56787109 C-7.4460294 45.47349897 -11.04792688 52.40762691 -14.640625 59.34765625 C-19.48155837 68.69618288 -24.33712841 78.03678154 -29.21289062 87.3671875 C-31.95675294 92.62108099 -34.69085164 97.87990499 -37.4140625 103.14453125 C-37.72442444 103.74426758 -38.03478638 104.34400391 -38.35455322 104.96191406 C-39.86157964 107.87422424 -41.36740388 110.78713632 -42.87109375 113.70117188 C-43.96566951 115.81726623 -45.06504383 117.93088677 -46.16967773 120.04174805 C-47.24257335 122.09612075 -48.30180204 124.15768346 -49.34790039 126.22583008 C-50.10961548 127.69572388 -50.10961548 127.69572388 -50.88671875 129.1953125 C-51.32943115 130.06422119 -51.77214355 130.93312988 -52.22827148 131.82836914 C-55.07592689 136.03179252 -58.97660749 137.78153777 -63.765625 139.09765625 C-69.38387654 140.02751986 -74.11782284 139.87700484 -79.140625 137.03515625 C-82.95799451 134.30173117 -85.28534365 131.05060466 -87.765625 127.09765625 C-87.105625 127.09765625 -86.445625 127.09765625 -85.765625 127.09765625 C-85.71535156 126.31390625 -85.66507813 125.53015625 -85.61328125 124.72265625 C-84.41622749 119.60345859 -81.8622031 115.59898421 -79.203125 111.09765625 C-73.77480313 101.71596686 -68.58425822 92.23933407 -63.515625 82.66015625 C-59.09797006 74.32496802 -54.67063022 66.00353383 -49.99511719 57.80908203 C-47.37776113 53.2156346 -44.84725725 48.57897966 -42.33227539 43.92871094 C-21.17110659 4.8446884 -21.17110659 4.8446884 -6.83300781 0.51391602 C-4.50450317 0.04508035 -2.37481323 -0.01522316 0 0 Z " fill="#FCC52A" transform="translate(1023.765625,57.90234375)"/>
<path d="M0 0 C1.55847656 0.5259375 1.55847656 0.5259375 3.1484375 1.0625 C24.19498117 9.01709918 38.84704553 24.27843376 49 44 C50.88386473 48.27421114 51.65075063 51.2820579 51 56 C48.45970629 60.08261489 45.51720141 63.21066196 41 65 C36.79860153 64.92361094 34.68914659 64.59420224 31.4765625 61.82421875 C28.94750002 58.94013015 27.46107004 56.32470698 25.8125 52.875 C18.18849435 38.31858316 6.69664527 29.49373789 -8.61328125 24.00390625 C-25.50824642 18.99582546 -42.0102353 20.74964445 -57.6875 28.6875 C-70.648049 36.21480575 -78.49207296 46.92431942 -84.4453125 60.43359375 C-86.27479596 63.45362047 -87.81924464 64.5270656 -91 66 C-96.01342749 66.53715295 -99.01257943 66.12527558 -103 63 C-106.01126327 60.15150771 -106.91179208 58.55865018 -107.5625 54.4375 C-106.64808331 38.71543239 -93.87129294 24.46724735 -82.70117188 14.43505859 C-60.18566684 -4.55835969 -27.54773362 -9.45204404 0 0 Z " fill="#239AD6" transform="translate(583,73)"/>
<path d="M0 0 C2.16653327 1.67299866 3.57974767 3.24064215 5.0234375 5.5625 C5.0234375 8.125 5.0234375 8.125 4.0234375 10.5625 C1.7734375 12.5 1.7734375 12.5 -0.9765625 13.5625 C-5.91639698 11.96629498 -10.44898642 9.2969115 -15.0390625 6.90234375 C-23.49044067 3.04752631 -33.47726736 3.72580592 -42.20703125 6.3984375 C-51.96988078 10.50186368 -58.83542356 17.28512847 -63 26.93359375 C-66.73726813 37.64823863 -65.76920953 48.50126592 -60.98046875 58.6796875 C-56.47718616 66.68898595 -49.39197403 72.86214832 -40.703125 75.875 C-30.36752298 78.48111168 -19.97772846 78.32158757 -10.4375 73.19921875 C-6.93761196 70.93424104 -3.8402518 68.45543142 -0.7890625 65.625 C2.0234375 63.5625 2.0234375 63.5625 5.2734375 63.5625 C8.0234375 64.5625 8.0234375 64.5625 10.0234375 67.5625 C10.44452387 70.62272074 10.39515369 72.02361536 8.625 74.58984375 C-1.84983141 84.71275395 -13.80815763 90.59251699 -28.6015625 91 C-43.77271251 90.42924072 -55.89793162 84.78789763 -66.38671875 73.84765625 C-76.2731983 62.08609133 -78.88183348 48.88089496 -78.19433594 33.97753906 C-77.02032006 20.95807151 -69.32104365 10.07921478 -59.7265625 1.6875 C-41.75076734 -12.28254694 -18.91054567 -11.5599349 0 0 Z " fill="#F2B430" transform="translate(583.9765625,112.4375)"/>
<path d="M0 0 C3.40053134 1.98899003 6.01308716 4.11256128 8.4453125 7.2109375 C11.88491803 11.37467051 15.06431324 12.88968015 20.43554688 13.48999023 C25.73898556 13.53424781 25.73898556 13.53424781 31.04248047 13.53198242 C33.31439484 13.5234597 35.58380137 13.55229012 37.85546875 13.58398438 C39.31249925 13.58559649 40.76953417 13.58501866 42.2265625 13.58203125 C43.53947266 13.58388428 44.85238281 13.5857373 46.20507812 13.58764648 C51.43717703 12.86155496 54.55327763 10.66973109 57.8203125 6.5859375 C60.82660514 2.8280717 64.27313342 0.60166386 68.8203125 -0.9140625 C75.19656011 -1.45442247 79.50887063 -0.56496794 84.8203125 3.0859375 C89.44859597 7.4123764 91.59223359 11.79303308 91.8203125 18.0859375 C90.6846051 24.67518326 87.8693213 29.57498907 82.6953125 33.8359375 C77.21128641 36.22029667 71.95758752 36.67553061 66.1953125 35.0859375 C62.5676145 32.93619054 59.66832769 30.5018559 56.6171875 27.609375 C52.76541742 24.34374384 48.20631277 24.89196994 43.42578125 24.84765625 C42.60080643 24.8395845 41.7758316 24.83151276 40.92585754 24.82319641 C39.18000378 24.80937177 37.43412318 24.79864237 35.68823242 24.79077148 C33.02795783 24.77356778 30.36892942 24.72966977 27.70898438 24.68554688 C26.01042578 24.67541846 24.31185665 24.66690282 22.61328125 24.66015625 C21.82245651 24.64264816 21.03163177 24.62514008 20.21684265 24.60710144 C13.38804642 24.63371577 9.9291994 27.24066146 4.8203125 31.7109375 C0.38205457 35.22455836 -3.0832036 36.3359113 -8.6796875 35.9609375 C-14.48337161 35.11375542 -18.1897166 32.37840417 -21.9921875 28.0234375 C-25.57922691 23.20655601 -25.72765782 18.89442291 -25.1796875 13.0859375 C-23.06138625 7.28848144 -19.54183389 3.64280671 -14.4296875 0.2734375 C-9.47054585 -1.53855657 -4.97082634 -2.08454008 0 0 Z M-14.1796875 11.0859375 C-16.06610614 13.99416624 -16.18769883 15.69338244 -16.1171875 19.1484375 C-14.89978746 22.96295762 -13.65287986 24.12282877 -10.1796875 26.0859375 C-5.74613092 26.79847338 -3.9391948 26.61920859 -0.2421875 24.0234375 C2.35358359 20.3264302 2.53284838 18.51949408 1.8203125 14.0859375 C0.02006908 11.01885611 -1.2218039 9.50015744 -4.4921875 8.0859375 C-8.35986681 8.0859375 -10.83304604 9.19161215 -14.1796875 11.0859375 Z M65.8203125 11.0859375 C63.66290029 13.71235237 63.8212566 15.13880692 63.8828125 18.5859375 C64.56291764 22.15133932 64.56291764 22.15133932 66.9453125 24.5234375 C70.62097632 26.52108088 72.69182319 26.74944471 76.8203125 26.0859375 C80.51217792 23.49377667 81.64915011 22.04444686 82.4453125 17.5859375 C81.6582233 13.17823798 80.36144378 11.76145891 76.8203125 9.0859375 C72.37145962 7.26076709 69.75130507 8.55263118 65.8203125 11.0859375 Z " fill="#F2B430" transform="translate(566.1796875,132.9140625)"/>
<path d="M0 0 C2.93756266 2.13105748 5.090671 4.75622195 7.30859375 7.609375 C9.84734739 10.40200401 11.90090476 11.29386394 15.640625 11.72265625 C17.55717167 11.80870528 19.47384248 11.89203175 21.390625 11.97265625 C24.30100642 12.47475259 25.22923252 13.05262926 26.94921875 15.4140625 C27.32421875 17.9765625 27.32421875 17.9765625 26.94921875 20.4140625 C22.61678401 23.30235232 18.5069991 22.80441155 13.39453125 22.97265625 C8.4717627 23.60335109 5.94634026 25.36446091 2.57421875 28.9140625 C-1.06737444 32.38224649 -4.3460402 34.2240235 -9.44140625 34.58203125 C-16.04626451 34.30851718 -20.45428361 32.14315142 -25.05078125 27.4140625 C-28.50482838 22.17728137 -29.48252748 17.10048347 -28.48828125 10.9140625 C-26.13014515 5.17251373 -23.06575019 1.57080393 -17.67578125 -1.5234375 C-10.9912599 -3.48269376 -6.06724788 -3.31374246 0 0 Z M-17.05078125 9.4140625 C-19.55109779 13.16453732 -19.58681679 14.97262516 -19.05078125 19.4140625 C-17.05902021 22.33946152 -15.6015405 24.00136044 -12.11328125 24.9296875 C-7.83900211 25.28587743 -6.36945934 24.68071151 -2.98828125 21.8515625 C-0.76542061 18.54521935 -0.76542061 18.54521935 -0.98828125 14.7890625 C-2.13885222 11.13430765 -2.96512985 9.64258851 -6.05078125 7.4140625 C-10.53421278 5.64428689 -13.07579021 6.94073474 -17.05078125 9.4140625 Z " fill="#239AD5" transform="translate(474.05078125,134.5859375)"/>
</svg>
